<svg width="50" height="50" viewBox="0 0 50 50" fill="none" xmlns="http://www.w3.org/2000/svg">
<circle cx="25" cy="25" r="25" fill="white"/>
<path d="M22.0166 12.9976L26.5997 17.9161L14.2072 32.649L8.05935 26.7369C4.05308 22.8842 4.05123 16.4738 8.05529 12.6188C11.9979 8.82306 18.2857 8.99365 22.0166 12.9976Z" fill="#CC2727" stroke="#CC2727"/>
<path fill-rule="evenodd" clip-rule="evenodd" d="M38.2735 11.5018C39.24 10.5479 40.7967 10.5581 41.7506 11.5245C42.7045 12.491 42.6943 14.0478 41.7278 15.0016L40.4846 16.2287C41.4434 15.5876 42.7523 15.6953 43.5925 16.5466C44.5443 17.511 44.5342 19.0644 43.5698 20.0162L37.7547 25.7557L37.7706 25.7724L40.6358 22.9445C41.6426 21.9507 43.2644 21.9614 44.2582 22.9682C45.252 23.9751 45.2414 25.5969 44.2345 26.5907L41.3043 29.4828L41.3083 29.487L25.8863 44.7254L12.9735 31.9349V31.2615H12.9727V18.5322C12.9727 17.2479 14.0138 16.2067 15.2982 16.2067C16.5825 16.2067 17.6237 17.2479 17.6237 18.5322V25.4516L22.5561 20.5769L22.5196 20.54L31.5793 11.5982C32.4934 10.696 33.9658 10.7056 34.868 11.6197C35.7025 12.4652 35.7569 13.7883 35.037 14.6961L38.2735 11.5018Z" fill="white"/>
<path d="M41.7506 11.5245L42.1065 11.1733L42.1065 11.1733L41.7506 11.5245ZM38.2735 11.5018L37.9223 11.1459L37.9223 11.1459L38.2735 11.5018ZM41.7278 15.0016L42.0791 15.3575L42.0791 15.3575L41.7278 15.0016ZM40.4846 16.2287L40.1334 15.8729L40.7625 16.6444L40.4846 16.2287ZM43.5925 16.5466L43.2367 16.8979L43.2367 16.8979L43.5925 16.5466ZM43.5698 20.0162L43.2186 19.6603L43.2186 19.6603L43.5698 20.0162ZM37.7547 25.7557L37.4034 25.3998L37.0538 25.7449L37.3926 26.1005L37.7547 25.7557ZM37.7706 25.7724L37.4085 26.1172L37.7595 26.4858L38.1218 26.1283L37.7706 25.7724ZM40.6358 22.9445L40.987 23.3004L40.987 23.3004L40.6358 22.9445ZM44.2345 26.5907L44.5857 26.9465L44.5857 26.9465L44.2345 26.5907ZM41.3043 29.4828L40.953 29.1269L40.6034 29.472L40.9422 29.8276L41.3043 29.4828ZM41.3083 29.487L41.6597 29.8427L42.0089 29.4976L41.6703 29.1421L41.3083 29.487ZM25.8863 44.7254L25.5345 45.0806L25.8859 45.4287L26.2377 45.081L25.8863 44.7254ZM12.9735 31.9349H12.4735V32.1434L12.6216 32.2902L12.9735 31.9349ZM12.9735 31.2615H13.4735V30.7615H12.9735V31.2615ZM12.9727 31.2615H12.4727V31.7615H12.9727V31.2615ZM17.6237 25.4516H17.1237V26.6487L17.9752 25.8072L17.6237 25.4516ZM22.5561 20.5769L22.9075 20.9326L23.2629 20.5813L22.9119 20.2257L22.5561 20.5769ZM22.5196 20.54L22.1684 20.1841L21.8125 20.5354L22.1638 20.8912L22.5196 20.54ZM31.5793 11.5982L31.2281 11.2423L31.2281 11.2423L31.5793 11.5982ZM34.868 11.6197L34.5122 11.971L34.5122 11.971L34.868 11.6197ZM35.037 14.6961L34.6453 14.3855L35.3883 15.052L35.037 14.6961ZM42.1065 11.1733C40.9586 10.0103 39.0853 9.99804 37.9223 11.1459L38.6247 11.8576C39.3947 11.0977 40.6348 11.1058 41.3948 11.8758L42.1065 11.1733ZM42.0791 15.3575C43.2421 14.2096 43.2543 12.3363 42.1065 11.1733L41.3948 11.8758C42.1547 12.6457 42.1465 13.8859 41.3766 14.6458L42.0791 15.3575ZM40.8358 16.5846L42.0791 15.3575L41.3766 14.6458L40.1334 15.8729L40.8358 16.5846ZM43.9484 16.1954C42.9365 15.1702 41.361 15.0411 40.2066 15.8131L40.7625 16.6444C41.5257 16.134 42.5681 16.2205 43.2367 16.8979L43.9484 16.1954ZM43.921 20.3721C45.0819 19.2263 45.0942 17.3563 43.9484 16.1954L43.2367 16.8979C43.9945 17.6657 43.9864 18.9025 43.2186 19.6603L43.921 20.3721ZM38.1059 26.1115L43.921 20.3721L43.2186 19.6603L37.4034 25.3998L38.1059 26.1115ZM37.3926 26.1005L37.4085 26.1172L38.1326 25.4276L38.1167 25.4109L37.3926 26.1005ZM40.2845 22.5886L37.4194 25.4166L38.1218 26.1283L40.987 23.3004L40.2845 22.5886ZM44.6141 22.617C43.4263 21.4136 41.4879 21.4009 40.2845 22.5886L40.987 23.3004C41.7973 22.5006 43.1026 22.5091 43.9023 23.3195L44.6141 22.617ZM44.5857 26.9465C45.7891 25.7588 45.8018 23.8204 44.6141 22.617L43.9023 23.3195C44.7021 24.1298 44.6936 25.435 43.8833 26.2348L44.5857 26.9465ZM41.6555 29.8386L44.5857 26.9465L43.8833 26.2348L40.953 29.1269L41.6555 29.8386ZM40.9422 29.8276L40.9462 29.8319L41.6703 29.1421L41.6663 29.1379L40.9422 29.8276ZM40.9569 29.1313L25.5349 44.3697L26.2377 45.081L41.6597 29.8427L40.9569 29.1313ZM26.2382 44.3701L13.3254 31.5797L12.6216 32.2902L25.5345 45.0806L26.2382 44.3701ZM13.4735 31.9349V31.2615H12.4735V31.9349H13.4735ZM12.9735 30.7615H12.9727V31.7615H12.9735V30.7615ZM13.4727 31.2615V18.5322H12.4727V31.2615H13.4727ZM13.4727 18.5322C13.4727 17.524 14.29 16.7067 15.2982 16.7067V15.7067C13.7377 15.7067 12.4727 16.9717 12.4727 18.5322H13.4727ZM15.2982 16.7067C16.3064 16.7067 17.1237 17.524 17.1237 18.5322H18.1237C18.1237 16.9717 16.8587 15.7067 15.2982 15.7067V16.7067ZM17.1237 18.5322V25.4516H18.1237V18.5322H17.1237ZM17.9752 25.8072L22.9075 20.9326L22.2046 20.2213L17.2723 25.096L17.9752 25.8072ZM22.1638 20.8912L22.2002 20.9282L22.9119 20.2257L22.8755 20.1888L22.1638 20.8912ZM31.2281 11.2423L22.1684 20.1841L22.8709 20.8959L31.9305 11.9541L31.2281 11.2423ZM35.2239 11.2685C34.1277 10.1579 32.3387 10.1461 31.2281 11.2423L31.9305 11.9541C32.6481 11.2458 33.8039 11.2534 34.5122 11.971L35.2239 11.2685ZM35.4288 15.0068C36.3038 13.9034 36.238 12.296 35.2239 11.2685L34.5122 11.971C35.167 12.6344 35.21 13.6733 34.6453 14.3855L35.4288 15.0068ZM37.9223 11.1459L34.6858 14.3403L35.3883 15.052L38.6247 11.8576L37.9223 11.1459Z" fill="#CC2727"/>
<path d="M30.1113 19.9117L35.1296 14.5874" stroke="#CC2727"/>
<path d="M33.7812 23.1548L40.5131 16.1782" stroke="#CC2727"/>
</svg>
