<svg width="57" height="57" viewBox="0 0 57 57" fill="none" xmlns="http://www.w3.org/2000/svg">
<circle cx="28.5" cy="28.5" r="28.5" fill="#FFD0D0"/>
<path d="M24.5507 12.2056L29.2046 17.2L16.2296 32.2506L10.1273 26.2713C6.07047 22.2962 6.0992 15.7553 10.1908 11.816C14.2459 7.91184 20.7133 8.08731 24.5507 12.2056Z" fill="#CC2727" stroke="#CC2727"/>
<path fill-rule="evenodd" clip-rule="evenodd" d="M41.1307 10.6475C42.1188 9.67229 43.7103 9.68271 44.6855 10.6707C45.6606 11.6588 45.6502 13.2503 44.6622 14.2255L43.4002 15.471C44.3792 14.825 45.7095 14.938 46.5647 15.8045C47.5378 16.7904 47.5274 18.3784 46.5415 19.3515L40.5972 25.2184L40.615 25.2371L43.5441 22.3461C44.5734 21.3301 46.2315 21.341 47.2474 22.3703C48.2633 23.3996 48.2525 25.0577 47.2232 26.0736L44.2275 29.0303L44.2308 29.0338L28.4647 44.6122L15.2637 31.5363V25.3425L15.2641 25.3425V17.8343C15.2641 16.5213 16.3285 15.4569 17.6415 15.4569C18.9546 15.4569 20.019 16.5213 20.019 17.8343V24.907L25.0618 19.9232L25.0258 19.8866L34.2876 10.7453C35.2221 9.82291 36.7274 9.83276 37.6498 10.7673C38.5033 11.6321 38.5585 12.9856 37.8215 13.9137L41.1307 10.6475Z" fill="white"/>
<path d="M44.6855 10.6707L44.3296 11.022L44.3296 11.022L44.6855 10.6707ZM41.1307 10.6475L41.482 11.0033L41.482 11.0033L41.1307 10.6475ZM44.6622 14.2255L45.0134 14.5813L45.0134 14.5813L44.6622 14.2255ZM43.4002 15.471L43.049 15.1152L43.6756 15.8884L43.4002 15.471ZM46.5647 15.8045L46.9206 15.4533L46.9206 15.4533L46.5647 15.8045ZM46.5415 19.3515L46.8927 19.7074L46.8927 19.7074L46.5415 19.3515ZM40.5972 25.2184L40.246 24.8626L39.8964 25.2076L40.2351 25.5633L40.5972 25.2184ZM40.615 25.2371L40.2529 25.5819L40.6039 25.9505L40.9662 25.593L40.615 25.2371ZM43.5441 22.3461L43.1929 21.9902L43.1929 21.9902L43.5441 22.3461ZM47.2474 22.3703L46.8915 22.7215L46.8915 22.7215L47.2474 22.3703ZM47.2232 26.0736L47.5744 26.4295L47.5744 26.4295L47.2232 26.0736ZM44.2275 29.0303L43.8763 28.6744L43.5267 29.0195L43.8655 29.3751L44.2275 29.0303ZM44.2308 29.0338L44.5823 29.3894L44.9315 29.0444L44.5929 28.6889L44.2308 29.0338ZM28.4647 44.6122L28.1128 44.9675L28.4643 45.3156L28.8161 44.9679L28.4647 44.6122ZM15.2637 31.5363H14.7637V31.7448L14.9118 31.8916L15.2637 31.5363ZM15.2637 25.3425L15.2431 24.8429L14.7637 24.8626V25.3425H15.2637ZM15.2641 25.3425L15.2847 25.842L15.7641 25.8223V25.3425H15.2641ZM20.019 24.907H19.519V26.1042L20.3705 25.2627L20.019 24.907ZM25.0618 19.9232L25.4133 20.2788L25.7687 19.9276L25.4177 19.5719L25.0618 19.9232ZM25.0258 19.8866L24.6745 19.5308L24.3187 19.882L24.6699 20.2379L25.0258 19.8866ZM34.2876 10.7453L34.6389 11.1011L34.6389 11.1011L34.2876 10.7453ZM37.6498 10.7673L38.0056 10.416L38.0056 10.416L37.6498 10.7673ZM37.8215 13.9137L37.4299 13.6028L38.1727 14.2696L37.8215 13.9137ZM45.0413 10.3195C43.8722 9.13495 41.9641 9.12245 40.7795 10.2916L41.482 11.0033C42.2735 10.2221 43.5484 10.2305 44.3296 11.022L45.0413 10.3195ZM45.0134 14.5813C46.198 13.4122 46.2105 11.5041 45.0413 10.3195L44.3296 11.022C45.1108 11.8135 45.1025 13.0884 44.311 13.8696L45.0134 14.5813ZM43.7515 15.8269L45.0134 14.5813L44.311 13.8696L43.049 15.1152L43.7515 15.8269ZM46.9206 15.4533C45.8944 14.4136 44.2992 14.2788 43.1248 15.0537L43.6756 15.8884C44.4592 15.3713 45.5245 15.4624 46.2088 16.1557L46.9206 15.4533ZM46.8927 19.7074C48.0751 18.5403 48.0876 16.6357 46.9206 15.4533L46.2088 16.1557C46.9879 16.9451 46.9796 18.2166 46.1902 18.9956L46.8927 19.7074ZM40.9484 25.5743L46.8927 19.7074L46.1902 18.9956L40.246 24.8626L40.9484 25.5743ZM40.2351 25.5633L40.2529 25.5819L40.977 24.8923L40.9593 24.8736L40.2351 25.5633ZM43.1929 21.9902L40.2637 24.8812L40.9662 25.593L43.8953 22.7019L43.1929 21.9902ZM47.6033 22.0191C46.3933 20.7932 44.4188 20.7803 43.1929 21.9902L43.8953 22.7019C44.7281 21.88 46.0696 21.8887 46.8915 22.7215L47.6033 22.0191ZM47.5744 26.4295C48.8003 25.2195 48.8132 23.2449 47.6033 22.0191L46.8915 22.7215C47.7135 23.5543 47.7047 24.8958 46.8719 25.7177L47.5744 26.4295ZM44.5788 29.3861L47.5744 26.4295L46.8719 25.7177L43.8763 28.6744L44.5788 29.3861ZM43.8655 29.3751L43.8688 29.3786L44.5929 28.6889L44.5896 28.6854L43.8655 29.3751ZM43.8794 28.6781L28.1133 44.2566L28.8161 44.9679L44.5823 29.3894L43.8794 28.6781ZM28.8166 44.257L15.6155 31.1811L14.9118 31.8916L28.1128 44.9675L28.8166 44.257ZM15.7637 31.5363V25.3425H14.7637V31.5363H15.7637ZM15.2842 25.8421L15.2847 25.842L15.2436 24.8429L15.2431 24.8429L15.2842 25.8421ZM15.7641 25.3425V17.8343H14.7641V25.3425H15.7641ZM15.7641 17.8343C15.7641 16.7975 16.6047 15.9569 17.6415 15.9569V14.9569C16.0524 14.9569 14.7641 16.2452 14.7641 17.8343H15.7641ZM17.6415 15.9569C18.6784 15.9569 19.519 16.7975 19.519 17.8343H20.519C20.519 16.2452 19.2307 14.9569 17.6415 14.9569V15.9569ZM19.519 17.8343V24.907H20.519V17.8343H19.519ZM20.3705 25.2627L25.4133 20.2788L24.7104 19.5675L19.6675 24.5514L20.3705 25.2627ZM24.6699 20.2379L24.706 20.2744L25.4177 19.5719L25.3816 19.5354L24.6699 20.2379ZM33.9364 10.3894L24.6745 19.5308L25.377 20.2425L34.6389 11.1011L33.9364 10.3894ZM38.0056 10.416C36.8893 9.285 35.0674 9.27306 33.9364 10.3894L34.6389 11.1011C35.3768 10.3727 36.5655 10.3805 37.2939 11.1185L38.0056 10.416ZM38.213 14.2247C39.1054 13.101 39.0389 11.463 38.0056 10.416L37.2939 11.1185C37.9677 11.8012 38.0117 12.8703 37.4299 13.6028L38.213 14.2247ZM40.7795 10.2916L37.4702 13.5579L38.1727 14.2696L41.482 11.0033L40.7795 10.2916Z" fill="#CC2727"/>
<path d="M32.7812 19.2439L37.9115 13.8008" stroke="#CC2727"/>
<path d="M36.5371 22.56L43.4192 15.4277" stroke="#CC2727"/>
<path d="M18.024 48.212V48.508H17.264V51H16.9V48.508H16.136V48.212H18.024ZM20.1201 50.38H18.9041L18.6801 51H18.2961L19.3041 48.228H19.7241L20.7281 51H20.3441L20.1201 50.38ZM20.0161 50.084L19.5121 48.676L19.0081 50.084H20.0161ZM22.6794 51L21.5314 49.728V51H21.1674V48.212H21.5314V49.504L22.6834 48.212H23.1434L21.8794 49.608L23.1554 51H22.6794ZM23.9259 48.508V49.44H24.9419V49.74H23.9259V50.7H25.0619V51H23.5619V48.208H25.0619V48.508H23.9259ZM28.5431 49.028C28.5431 49.26 28.4631 49.4533 28.3031 49.608C28.1458 49.76 27.9044 49.836 27.5791 49.836H27.0431V51H26.6791V48.212H27.5791C27.8938 48.212 28.1324 48.288 28.2951 48.44C28.4604 48.592 28.5431 48.788 28.5431 49.028ZM27.5791 49.536C27.7818 49.536 27.9311 49.492 28.0271 49.404C28.1231 49.316 28.1711 49.1907 28.1711 49.028C28.1711 48.684 27.9738 48.512 27.5791 48.512H27.0431V49.536H27.5791ZM29.3595 50.704H30.3355V51H28.9955V48.212H29.3595V50.704ZM31.0861 48.508V49.44H32.1021V49.74H31.0861V50.7H32.2221V51H30.7221V48.208H32.2221V48.508H31.0861ZM33.6408 48.212C33.9448 48.212 34.2075 48.2693 34.4288 48.384C34.6528 48.496 34.8235 48.6573 34.9408 48.868C35.0608 49.0787 35.1208 49.3267 35.1208 49.612C35.1208 49.8973 35.0608 50.1453 34.9408 50.356C34.8235 50.564 34.6528 50.724 34.4288 50.836C34.2075 50.9453 33.9448 51 33.6408 51H32.7728V48.212H33.6408ZM33.6408 50.7C34.0008 50.7 34.2755 50.6053 34.4648 50.416C34.6542 50.224 34.7488 49.956 34.7488 49.612C34.7488 49.2653 34.6528 48.9947 34.4608 48.8C34.2715 48.6053 33.9982 48.508 33.6408 48.508H33.1368V50.7H33.6408ZM37.713 49.02C37.6356 48.8573 37.5236 48.732 37.377 48.644C37.2303 48.5533 37.0596 48.508 36.865 48.508C36.6703 48.508 36.4943 48.5533 36.337 48.644C36.1823 48.732 36.0596 48.86 35.969 49.028C35.881 49.1933 35.837 49.3853 35.837 49.604C35.837 49.8227 35.881 50.0147 35.969 50.18C36.0596 50.3453 36.1823 50.4733 36.337 50.564C36.4943 50.652 36.6703 50.696 36.865 50.696C37.137 50.696 37.361 50.6147 37.537 50.452C37.713 50.2893 37.8156 50.0693 37.845 49.792H36.733V49.496H38.233V49.776C38.2116 50.0053 38.1396 50.216 38.017 50.408C37.8943 50.5973 37.733 50.748 37.533 50.86C37.333 50.9693 37.1103 51.024 36.865 51.024C36.6063 51.024 36.3703 50.964 36.157 50.844C35.9436 50.7213 35.7743 50.552 35.649 50.336C35.5263 50.12 35.465 49.876 35.465 49.604C35.465 49.332 35.5263 49.088 35.649 48.872C35.7743 48.6533 35.9436 48.484 36.157 48.364C36.3703 48.2413 36.6063 48.18 36.865 48.18C37.161 48.18 37.4223 48.2533 37.649 48.4C37.8783 48.5467 38.045 48.7533 38.149 49.02H37.713ZM39.0783 48.508V49.44H40.0943V49.74H39.0783V50.7H40.2143V51H38.7143V48.208H40.2143V48.508H39.0783Z" fill="#CC2727"/>
</svg>
